<svg width="22" height="22" viewBox="0 0 22 22" fill="none" xmlns="http://www.w3.org/2000/svg">
<path d="M5.25 9.5C7.59721 9.5 9.5 7.59721 9.5 5.25C9.5 2.90279 7.59721 1 5.25 1C2.90279 1 1 2.90279 1 5.25C1 7.59721 2.90279 9.5 5.25 9.5Z" stroke="black" stroke-width="1.5" stroke-linecap="round" stroke-linejoin="round"/>
<path d="M16.75 21C19.0972 21 21 19.0972 21 16.75C21 14.4028 19.0972 12.5 16.75 12.5C14.4028 12.5 12.5 14.4028 12.5 16.75C12.5 19.0972 14.4028 21 16.75 21Z" stroke="black" stroke-width="1.5" stroke-linecap="round" stroke-linejoin="round"/>
<path d="M5.25 21C7.59721 21 9.5 19.0972 9.5 16.75C9.5 14.4028 7.59721 12.5 5.25 12.5C2.90279 12.5 1 14.4028 1 16.75C1 19.0972 2.90279 21 5.25 21Z" stroke="black" stroke-width="1.5" stroke-linecap="round" stroke-linejoin="round"/>
<path d="M21 5H13" stroke="black" stroke-width="1.5" stroke-linecap="round" stroke-linejoin="round"/>
</svg>
