<svg width="24" height="24" viewBox="0 0 24 24" fill="none" xmlns="http://www.w3.org/2000/svg">
<path d="M4.616 20C4.15533 20 3.771 19.846 3.463 19.538C3.155 19.23 3.00067 18.8453 3 18.384V8.616C3 8.15534 3.15433 7.771 3.463 7.463C3.77167 7.155 4.15567 7.00067 4.615 7H9V5.615C9 5.155 9.15433 4.77067 9.463 4.462C9.77167 4.15334 10.156 3.99934 10.616 4H13.385C13.845 4 14.2293 4.154 14.538 4.462C14.8467 4.77 15.0007 5.15434 15 5.615V7H19.385C19.845 7 20.229 7.15434 20.537 7.463C20.845 7.77167 20.9993 8.156 21 8.616V12.135C21 12.277 20.9523 12.3917 20.857 12.479C20.7617 12.5663 20.6427 12.6097 20.5 12.609C20.3573 12.6083 20.2383 12.5607 20.143 12.466C20.0477 12.3713 20 12.2527 20 12.11V8.616C20 8.436 19.9423 8.28834 19.827 8.173C19.7117 8.05767 19.5643 8 19.385 8H4.615C4.43567 8 4.28833 8.05767 4.173 8.173C4.05767 8.28834 4 8.436 4 8.616V18.385C4 18.5643 4.05767 18.7117 4.173 18.827C4.28833 18.9423 4.436 19 4.616 19H11.808C11.95 19 12.069 19.0477 12.165 19.143C12.261 19.2383 12.3087 19.3573 12.308 19.5C12.3073 19.6427 12.2597 19.7617 12.165 19.857C12.0703 19.9523 11.9513 20 11.808 20H4.616ZM10 7H14V5.615C14 5.43567 13.9423 5.28834 13.827 5.173C13.7117 5.05767 13.5643 5 13.385 5H10.615C10.4357 5 10.2883 5.05767 10.173 5.173C10.0577 5.28834 10 5.43567 10 5.615V7ZM18 22C16.886 22 15.941 21.612 15.165 20.836C14.3883 20.0587 14 19.1133 14 18C14 16.8867 14.3883 15.9417 15.165 15.165C15.9417 14.3883 16.8867 14 18 14C19.1133 14 20.0587 14.3883 20.836 15.165C21.6133 15.9417 22.0013 16.8867 22 18C21.9987 19.1133 21.6107 20.0587 20.836 20.836C20.0613 21.6133 19.116 22.0013 18 22ZM18.385 17.839V15.5C18.385 15.3927 18.3477 15.3017 18.273 15.227C18.1983 15.1523 18.1073 15.1153 18 15.116C17.8927 15.1167 17.8017 15.1537 17.727 15.227C17.6523 15.3003 17.6153 15.3913 17.616 15.5V17.833C17.616 17.9403 17.6343 18.0403 17.671 18.133C17.7083 18.2263 17.7707 18.3163 17.858 18.403L19.377 19.923C19.4517 19.9977 19.5397 20.038 19.641 20.044C19.7417 20.0507 19.8357 20.0103 19.923 19.923C20.0103 19.8357 20.0537 19.7447 20.053 19.65C20.0523 19.5553 20.009 19.4643 19.923 19.377L18.385 17.839Z" fill="black"/>
</svg>
