<svg width="24" height="24" viewBox="0 0 24 24" fill="none" xmlns="http://www.w3.org/2000/svg">
<path d="M13.4999 12.423C12.9359 12.423 12.4616 12.2307 12.0769 11.846C11.6922 11.4613 11.4999 10.987 11.4999 10.423C11.4999 9.859 11.6922 9.38467 12.0769 9C12.4616 8.61533 12.9359 8.423 13.4999 8.423C14.0639 8.423 14.5382 8.61533 14.9229 9C15.3076 9.38467 15.4999 9.859 15.4999 10.423C15.4999 10.987 15.3076 11.4613 14.9229 11.846C14.5382 12.2307 14.0639 12.423 13.4999 12.423ZM7.30789 15.616C6.86323 15.616 6.48289 15.4577 6.16689 15.141C5.85023 14.8243 5.69189 14.444 5.69189 14V6.846C5.69189 6.402 5.85023 6.022 6.16689 5.706C6.48356 5.39 6.86356 5.23167 7.30689 5.231H19.6919C20.1366 5.231 20.5169 5.389 20.8329 5.705C21.1489 6.021 21.3072 6.40133 21.3079 6.846V14C21.3079 14.444 21.1496 14.824 20.8329 15.14C20.5169 15.4573 20.1369 15.616 19.6929 15.616H7.30789ZM8.30789 14.616H18.6919C18.6919 14.168 18.8502 13.7867 19.1669 13.472C19.4829 13.1573 19.8629 13 20.3069 13V7.846C19.8602 7.846 19.4796 7.688 19.1649 7.372C18.8496 7.05533 18.6919 6.675 18.6919 6.231H8.30789C8.30789 6.67833 8.14956 7.05933 7.83289 7.374C7.51689 7.68867 7.13689 7.846 6.69289 7.846V13C7.13956 13 7.52056 13.1583 7.83589 13.475C8.15056 13.791 8.30789 14.171 8.30789 14.615M17.8459 18.615H4.30789C3.86323 18.615 3.48289 18.457 3.16689 18.141C2.85023 17.8243 2.69189 17.444 2.69189 17V8.692C2.69189 8.55067 2.73989 8.432 2.83589 8.336C2.93189 8.24 3.05089 8.192 3.19289 8.192C3.33489 8.192 3.45356 8.24 3.54889 8.336C3.64423 8.432 3.69189 8.55067 3.69189 8.692V17C3.69189 17.1533 3.75589 17.2943 3.88389 17.423C4.01256 17.5517 4.15389 17.616 4.30789 17.616H17.8459C17.9879 17.616 18.1066 17.6637 18.2019 17.759C18.2979 17.855 18.3459 17.974 18.3459 18.116C18.3459 18.258 18.2979 18.3767 18.2019 18.472C18.1059 18.5673 17.9872 18.6143 17.8459 18.615ZM7.30789 14.616H6.69189V6.23H7.30789C7.14123 6.23 6.99689 6.291 6.87489 6.413C6.75289 6.535 6.69189 6.679 6.69189 6.845V14C6.69189 14.1667 6.75289 14.311 6.87489 14.433C6.99689 14.555 7.14123 14.616 7.30789 14.616Z" fill="black"/>
</svg>
